HIERARCHY
ROOT Hips
{
  OFFSET 0 89.5177 0.535
  CHANNELS 6 Xposition Yposition Zposition Zrotation Xrotation Yrotation
  JOINT Spine
  {
    OFFSET 12.0259 -0.162855 1.69034e-005
    CHANNELS 3 Zrotation Xrotation Yrotation
    JOINT Spine1
    {
      OFFSET 15.3169 -0.0121922 0
      CHANNELS 3 Zrotation Xrotation Yrotation
      JOINT Spine2
      {
        OFFSET 15.3176 -0.0121908 0
        CHANNELS 3 Zrotation Xrotation Yrotation
        JOINT Neck
        {
          OFFSET 19.9142 1.56338 0
          CHANNELS 3 Zrotation Xrotation Yrotation
          JOINT Head
          {
            OFFSET 6.92651 0 0
            CHANNELS 3 Zrotation Xrotation Yrotation
            End Site
            {
              OFFSET 20.7666 0 0
            }
          }
          JOINT LeftShoulder
          {
            OFFSET -6.20654 0.708824 7.28219
            CHANNELS 3 Zrotation Xrotation Yrotation
            JOINT LeftArm
            {
              OFFSET 14.108 0 -1.52588e-005
              CHANNELS 3 Zrotation Xrotation Yrotation
              JOINT LeftForeArm
              {
                OFFSET 28.5802 0 0
                CHANNELS 3 Zrotation Xrotation Yrotation
                JOINT LeftHand
                {
                  OFFSET 27.092 0 0
                  CHANNELS 3 Zrotation Xrotation Yrotation
                  End Site
                  {
                    OFFSET 9.55928 -0.186424 0.145352
                  }
                }
              }
            }
          }
          JOINT RightShoulder
          {
            OFFSET -6.20654 0.708866 -7.28218
            CHANNELS 3 Zrotation Xrotation Yrotation
            JOINT RightArm
            {
              OFFSET 14.108 0 1.52588e-005
              CHANNELS 3 Zrotation Xrotation Yrotation
              JOINT RightForeArm
              {
                OFFSET 28.5802 0 0
                CHANNELS 3 Zrotation Xrotation Yrotation
                JOINT RightHand
                {
                  OFFSET 27.092 0 0
                  CHANNELS 3 Zrotation Xrotation Yrotation
                  End Site
                  {
                    OFFSET 9.55929 -0.186417 -0.145354
                  }
                }
              }
            }
          }
        }
      }
    }
  }
  JOINT LeftUpLeg
  {
    OFFSET 0.005 -0.535 8.837
    CHANNELS 3 Zrotation Xrotation Yrotation
    JOINT LeftLeg
    {
      OFFSET 39.9035 0 0
      CHANNELS 3 Zrotation Xrotation Yrotation
      JOINT LeftFoot
      {
        OFFSET 39.6689 0 0
        CHANNELS 3 Zrotation Xrotation Yrotation
        JOINT LeftToe
        {
          OFFSET 10.1624 13.6296 0
          CHANNELS 3 Zrotation Xrotation Yrotation
          End Site
          {
            OFFSET 8.38147 0 0
          }
        }
      }
    }
  }
  JOINT RightUpLeg
  {
    OFFSET 0.005 -0.535 -8.837
    CHANNELS 3 Zrotation Xrotation Yrotation
    JOINT RightLeg
    {
      OFFSET 39.9035 0 0
      CHANNELS 3 Zrotation Xrotation Yrotation
      JOINT RightFoot
      {
        OFFSET 39.6689 0 0
        CHANNELS 3 Zrotation Xrotation Yrotation
        JOINT RightToe
        {
          OFFSET 10.1624 13.6296 0
          CHANNELS 3 Zrotation Xrotation Yrotation
          End Site
          {
            OFFSET 8.38147 0 0
          }
        }
      }
    }
  }
}
MOTION
Frames:	14
Frame Time:	0.0333333
258.792 89.6767 19.0179 44.6676 -80.4463 -40.4582 2.55032 -1.13598 -1.22902 5.07725 -2.32479 -2.40686 5.07725 -2.32479 -2.40687 -8.3043e-012 -9.0191e-006 -5.27751e-005 11.384 -7.56516 10.5295 -178.477 -14.0227 -83.7392 7.79003 -53.5351 19.7213 -15.7274 3.18055e-015 1.98785e-015 -67.3683 -32.4764 -58.4164 179.505 10.3481 92.7553 49.5563 65.3486 -61.2473 -7.65336 6.36111e-015 -5.96354e-016 -50.5404 27.7344 43.363 7.11819 8.7676 175.851 -12.0855 0 1.59028e-015 10.0097 4.82788 -10.2932 90 8.07563e-016 -0 7.69505 -10.727 175.993 -10.5745 -3.97569e-016 -9.93923e-017 12.4303 -2.39899 2.66413 90 7.22147e-017 -3.97569e-016 
258.781 89.6742 18.9812 44.818 -80.4346 -40.2979 2.54832 -1.14818 -1.23373 5.07293 -2.34934 -2.4158 5.07293 -2.34935 -2.41581 -8.30907e-012 -9.0191e-006 -5.27751e-005 11.3213 -7.35596 10.3672 -178.478 -13.983 -83.7263 7.79245 -53.4847 19.7096 -15.6378 3.18055e-015 3.97569e-016 -67.3064 -32.5472 -58.3868 179.502 10.3163 92.7766 49.3785 65.3021 -61.1003 -7.65974 0 5.96354e-016 -50.4435 27.8343 43.361 7.12789 8.77953 175.848 -12.0919 -3.18055e-015 -7.95139e-016 10.0463 4.85232 -10.3811 90 -8.69683e-017 -0 7.68536 -10.7868 175.973 -10.6174 -3.97569e-016 -0 12.4938 -2.42515 2.69432 90 5.73835e-016 1.98785e-016 
258.779 89.6734 18.9523 44.8383 -80.4281 -40.2822 2.54588 -1.14795 -1.23956 5.06779 -2.35395 -2.42741 5.06779 -2.35395 -2.42742 -8.30828e-012 -9.0191e-006 -5.27751e-005 11.2972 -7.16316 10.2738 -178.489 -13.9383 -83.752 7.82006 -53.4363 19.7443 -15.6335 3.18055e-015 1.68967e-015 -67.3217 -32.5661 -58.4236 179.499 10.317 92.7951 49.4096 65.2757 -61.1449 -7.69108 0 -1.59028e-015 -50.4506 27.8615 43.3797 7.17015 8.76954 175.845 -12.0558 -9.54166e-015 -1.19271e-015 10.0562 4.8705 -10.3864 90 -9.81499e-016 -0 7.74093 -10.7872 175.983 -10.5556 0 -9.93923e-017 12.4569 -2.42043 2.72237 90 -3.38167e-016 -0 
258.784 89.6725 18.9248 44.9129 -80.4481 -40.2054 2.53093 -1.14736 -1.24755 5.03787 -2.34884 -2.44375 5.03787 -2.34884 -2.44376 -8.30589e-012 -9.0191e-006 -5.27751e-005 11.3535 -6.95395 10.1586 -178.497 -13.9106 -83.7721 7.81561 -53.4204 19.7618 -15.6906 -3.18055e-015 2.48481e-015 -67.3245 -32.5682 -58.4306 179.498 10.3181 92.7994 49.1702 65.1963 -60.9096 -7.7107 0 1.98785e-016 -50.3927 27.8245 43.259 7.17243 8.78179 175.843 -12.0437 0 7.95139e-016 10.0574 4.86642 -10.3663 90 -2.60905e-016 1.59028e-015 7.72949 -10.8009 175.982 -10.563 -3.97569e-016 -0 12.4815 -2.42878 2.73493 90 3.48261e-016 1.98785e-016 
258.794 89.6716 18.8892 44.8752 -80.5023 -40.262 2.51414 -1.14657 -1.24743 5.00437 -2.34376 -2.44401 5.00437 -2.34376 -2.44402 -8.30669e-012 -9.0191e-006 -5.27751e-005 11.4566 -6.7565 9.98991 -178.49 -13.9382 -83.756 7.73179 -53.4391 19.7281 -15.7206 -6.36111e-015 -3.67752e-015 -67.4009 -32.5264 -58.5048 179.493 10.3192 92.8253 49.1449 65.2282 -60.9042 -7.69401 0 -7.95139e-016 -50.5193 27.785 43.3578 7.17757 8.78867 175.862 -12.0164 6.36111e-015 -0 10.0537 4.83119 -10.2943 90 -9.19379e-016 1.59028e-015 7.76938 -10.7583 176.008 -10.4736 7.95139e-016 9.93923e-017 12.4394 -2.41329 2.75226 90 -5.17927e-016 1.98785e-016 
258.8 89.6706 18.8524 44.871 -80.5464 -40.2849 2.49896 -1.1457 -1.24783 4.97383 -2.34557 -2.44651 4.97383 -2.34557 -2.44652 -8.30669e-012 -9.0191e-006 -5.27751e-005 11.5201 -6.54657 9.84752 -178.488 -13.9576 -83.7554 7.6392 -53.3248 19.6592 -15.7971 6.36111e-015 -0 -67.3781 -32.5482 -58.4928 179.492 10.3206 92.8311 49.21 65.308 -61.009 -7.69246 3.18055e-015 9.93923e-016 -50.5107 27.7898 43.3607 7.19278 8.80642 175.876 -11.9838 3.18055e-015 -0 10.0674 4.83807 -10.2866 90 -1.04983e-015 -0 7.77315 -10.7353 176.032 -10.4562 3.97569e-016 -1.98785e-016 12.4468 -2.43592 2.79043 90 7.71455e-016 3.97569e-016 
258.805 89.6699 18.8131 44.7609 -80.5785 -40.3976 2.48811 -1.14491 -1.24892 4.95214 -2.34192 -2.44978 4.95214 -2.34192 -2.44979 -8.30748e-012 -9.0191e-006 -5.27751e-005 11.5744 -6.43379 9.66594 -178.492 -13.9164 -83.7551 7.63928 -53.2408 19.6474 -15.8502 -9.54166e-015 -2.78299e-015 -67.395 -32.534 -58.5122 179.49 10.3218 92.8464 49.2125 65.3156 -61.0088 -7.74163 0 2.38542e-015 -50.4576 27.8745 43.3892 7.22039 8.82384 175.879 -11.968 -6.36111e-015 -3.97569e-016 10.0764 4.81626 -10.2751 90 -2.73329e-016 -1.59028e-015 7.78091 -10.727 176.034 -10.4696 -3.97569e-016 -1.98785e-016 12.4915 -2.45386 2.81569 90 -1.77431e-016 -0 
258.815 89.6692 18.7814 44.6058 -80.6183 -40.5571 2.47663 -1.14433 -1.2505 4.92932 -2.33829 -2.45105 4.92931 -2.33829 -2.45106 -8.30669e-012 -9.0191e-006 -5.27751e-005 11.6978 -6.3727 9.48597 -178.492 -13.9127 -83.7536 7.68179 -53.2396 19.7086 -15.8659 -6.36111e-015 5.96354e-016 -67.4084 -32.5444 -58.5467 179.489 10.3229 92.8495 49.1266 65.3169 -60.942 -7.71171 -3.18055e-015 -9.93923e-016 -50.4216 27.8668 43.3567 7.24172 8.85846 175.892 -11.9622 0 3.97569e-016 10.0898 4.81939 -10.2768 90 1.79527e-015 1.59028e-015 7.78805 -10.6975 176.046 -10.4721 7.95139e-016 -9.93923e-017 12.5039 -2.46006 2.83537 90 -8.88319e-016 1.98785e-016 
258.823 89.6686 18.7513 44.4292 -80.6413 -40.737 2.46973 -1.1441 -1.25446 4.91536 -2.34045 -2.45906 4.91536 -2.34045 -2.45907 -8.30669e-012 -9.0191e-006 -5.27751e-005 11.788 -6.26396 9.38835 -178.492 -13.9156 -83.7521 7.6778 -53.2553 19.7417 -15.7959 -3.18055e-015 9.93923e-016 -67.4141 -32.5349 -58.5501 179.489 10.3232 92.8508 49.0425 65.2678 -60.8856 -7.72804 0 3.97569e-016 -50.288 27.924 43.2613 7.26727 8.88235 175.899 -11.9655 0 -3.97569e-016 10.1071 4.81713 -10.2891 90 2.08103e-015 -0 7.84759 -10.6426 176.057 -10.4065 -3.97569e-016 -2.98177e-016 12.4638 -2.44145 2.8442 90 6.43332e-016 -0 
258.833 89.6678 18.7216 44.378 -80.6568 -40.7911 2.46025 -1.14942 -1.25597 4.89618 -2.35101 -2.46479 4.89618 -2.35101 -2.4648 -8.30828e-012 -9.0191e-006 -5.27751e-005 11.9131 -6.24039 9.29277 -178.494 -13.8939 -83.7521 7.7066 -53.158 19.765 -15.7694 9.54166e-015 9.93923e-016 -67.3412 -32.6533 -58.5256 179.489 10.3229 92.8521 48.9353 65.21 -60.7902 -7.7523 3.18055e-015 -9.93923e-016 -50.1731 28.0693 43.2614 7.29195 8.88237 175.901 -11.9518 0 -3.97569e-016 10.1101 4.80029 -10.2544 90 1.11816e-016 1.59028e-015 7.88057 -10.6268 176.066 -10.3739 0 -2.98177e-016 12.4637 -2.43823 2.85536 90 3.55638e-016 5.96354e-016 
258.845 89.6661 18.6915 44.3863 -80.6831 -40.7868 2.44466 -1.15399 -1.25703 4.86486 -2.35986 -2.46726 4.86486 -2.35986 -2.46727 -8.30748e-012 -9.0191e-006 -5.27751e-005 12.015 -6.21988 9.23167 -178.491 -13.8744 -83.7289 7.70757 -53.1365 19.7637 -15.7076 6.36111e-015 -9.93923e-016 -67.3149 -32.6576 -58.5113 179.489 10.3108 92.8528 48.9802 65.2339 -60.8226 -7.67716 3.18055e-015 -1.19271e-015 -50.2606 27.9683 43.3336 7.29752 8.90859 175.907 -11.946 6.36111e-015 3.97569e-016 10.1233 4.80853 -10.2521 90 7.51655e-016 -0 7.91163 -10.5985 176.08 -10.315 -7.95139e-016 -1.98785e-016 12.4316 -2.42201 2.85559 90 -1.59183e-017 1.98785e-016 
258.86 89.6629 18.6637 44.3765 -80.7005 -40.7997 2.43128 -1.15926 -1.25825 4.838 -2.37015 -2.46909 4.838 -2.37015 -2.4691 -8.30828e-012 -9.0191e-006 -5.27751e-005 12.1149 -6.17948 9.21201 -178.488 -13.8785 -83.7215 7.72784 -53.0954 19.7952 -15.6956 -6.36111e-015 2.18663e-015 -67.2632 -32.7128 -58.446 179.489 10.3176 92.8531 49.028 65.2317 -60.861 -7.70786 0 -1.98785e-016 -50.2071 28.0817 43.3334 7.31904 8.91998 175.916 -11.9265 -3.18055e-015 -1.59028e-015 10.1358 4.81795 -10.2427 90 1.01877e-015 -0 7.89733 -10.5921 176.091 -10.3508 -3.97569e-016 -0 12.4745 -2.43086 2.85169 90 -8.69683e-017 -3.97569e-016 
258.88 89.6592 18.6409 44.4286 -80.7213 -40.7509 2.41853 -1.16208 -1.26026 4.81246 -2.37556 -2.47098 4.81246 -2.37556 -2.47099 -8.30828e-012 -9.0191e-006 -5.27751e-005 12.1941 -6.14579 9.21735 -178.49 -13.8738 -83.7255 7.74696 -53.0768 19.8273 -15.7045 -6.36111e-015 2.18663e-015 -67.3116 -32.6693 -58.4849 179.488 10.3448 92.8488 49.0644 65.2256 -60.8595 -7.70989 0 5.96354e-016 -50.1639 28.0276 43.2654 7.30006 8.92035 175.944 -11.9385 0 1.59028e-015 10.1561 4.80841 -10.2699 90 5.77718e-016 3.18055e-015 7.88942 -10.5974 176.111 -10.3767 0 2.98177e-016 12.5172 -2.44115 2.85715 90 -8.25034e-016 -3.97569e-016 
258.9 89.6561 18.6213 44.4181 -80.729 -40.7624 2.4087 -1.16473 -1.2675 4.79289 -2.37158 -2.48576 4.79289 -2.37158 -2.48577 -8.30748e-012 -9.0191e-006 -5.27751e-005 12.2247 -6.14183 9.25978 -178.512 -13.8057 -83.7859 7.84726 -53.0798 19.8917 -15.6824 3.18055e-015 2.98177e-015 -67.3222 -32.6384 -58.4865 179.497 10.3512 92.7987 49.0774 65.2683 -60.7942 -7.67469 0 -2.98177e-016 -50.167 28.0627 43.2988 7.31055 8.92169 175.955 -11.9339 0 -0 10.1632 4.80503 -10.2486 90 6.52262e-016 -3.18055e-015 7.9054 -10.5695 176.131 -10.3615 7.95139e-016 1.98785e-016 12.5091 -2.42469 2.83008 90 6.09166e-016 -1.98785e-016 
